<?xml version="1.0" encoding="iso-8859-1"?>
<!-- Uploaded to: SVG Repo, www.svgrepo.com, Generator: SVG Repo Mixer Tools -->
<svg height="800px" width="800px" version="1.1" id="Layer_1" xmlns="http://www.w3.org/2000/svg" xmlns:xlink="http://www.w3.org/1999/xlink" 
	 viewBox="0 0 512 512" xml:space="preserve">
<circle style="fill:#273B7A;" cx="256" cy="256" r="256"/>
<path style="fill:#121149;" d="M154.721,355.837L305.99,507.106c101.283-20.051,181.067-99.837,201.118-201.119L357.136,156.015
	L154.721,355.837z"/>
<circle style="fill:#FFC61B;" cx="256" cy="256" r="142.222"/>
<path style="fill:#EAA22F;" d="M398.222,256c0-78.546-63.674-142.222-142.222-142.222v284.444
	C334.548,398.222,398.222,334.546,398.222,256z"/>
<path style="fill:#C92F00;" d="M198.856,344.35c-9.89,0-17.061-9.376-14.541-18.939c8.37-31.765,37.293-55.189,71.687-55.189
	s63.317,23.424,71.687,55.189c2.52,9.564-4.653,18.939-14.541,18.939H198.856z"/>
<path style="fill:#930000;" d="M327.687,325.411c-8.37-31.765-37.293-55.189-71.687-55.189c-0.048,0-0.095,0.003-0.143,0.003v74.125
	h57.287C323.034,344.35,330.206,334.974,327.687,325.411z"/>
<path style="fill:#FF5419;" d="M179.231,242.797c-3.208,0-6.211-2.005-7.325-5.208c-1.408-4.043,0.722-8.459,4.761-9.875l0,0
	c0.217-0.078,21.99-7.883,35.309-24.552c2.677-3.346,7.558-3.887,10.904-1.217c3.346,2.675,3.891,7.558,1.217,10.904
	c-16.174,20.235-41.255,29.143-42.315,29.512C180.938,242.657,180.077,242.797,179.231,242.797z"/>
<path style="fill:#C92F00;" d="M332.769,242.797c-0.846,0-1.707-0.14-2.55-0.434c-1.06-0.369-26.141-9.276-42.315-29.512
	c-2.674-3.346-2.129-8.228,1.217-10.904c3.344-2.674,8.228-2.129,10.904,1.217c13.321,16.668,35.092,24.474,35.309,24.552
	c4.037,1.422,6.166,5.846,4.751,9.883C338.965,240.795,335.97,242.797,332.769,242.797z"/>
<path style="fill:#02B2B2;" d="M198.537,166.71c-3.213,13.915-17.098,22.592-31.013,19.378
	c-13.915-3.213-22.592-17.098-19.378-31.013c3.213-13.915,40.003-58.318,40.003-58.318S201.75,152.795,198.537,166.71z"/>
</svg>